<?xml version="1.0" standalone="no"?>
<!DOCTYPE svg PUBLIC "-//W3C//DTD SVG 20010904//EN"
 "http://www.w3.org/TR/2001/REC-SVG-20010904/DTD/svg10.dtd">
<svg version="1.0" xmlns="http://www.w3.org/2000/svg"
 width="474.000000pt" height="456.000000pt" viewBox="0 0 474.000000 456.000000"
 preserveAspectRatio="xMidYMid meet">

<g transform="translate(0.000000,456.000000) scale(0.100000,-0.100000)"
fill="#000000" stroke="none">
<path d="M234 4389 c-9 -15 -6 -292 4 -300 4 -3 51 -11 105 -18 94 -12 194
-41 247 -71 14 -8 29 -13 33 -12 5 1 6 -2 3 -7 -3 -5 1 -14 9 -21 8 -6 25 -37
37 -68 l23 -57 3 -1455 c3 -1350 2 -1460 -15 -1529 -11 -50 -28 -88 -49 -117
-18 -23 -29 -46 -26 -50 4 -4 2 -4 -4 -1 -12 7 -78 -16 -70 -24 2 -2 -5 -5
-17 -5 -12 -1 -71 -12 -132 -24 -60 -12 -120 -24 -131 -26 -12 -2 -24 -14 -28
-26 -11 -43 -7 -263 6 -276 17 -17 2029 -17 2046 0 8 8 12 58 12 158 l0 146
-110 11 c-196 21 -323 66 -366 130 -12 18 -23 30 -26 28 -2 -2 -4 4 -5 13 -1
9 -9 46 -17 82 -13 55 -15 173 -16 743 l-1 679 193 -1 c220 -2 368 -20 467
-57 36 -14 74 -26 84 -25 9 0 15 -4 12 -10 -4 -5 -2 -9 3 -9 5 0 26 -11 46
-25 21 -14 41 -23 46 -20 4 3 14 -3 21 -13 13 -16 12 -16 -6 -3 -11 8 -5 -1
13 -20 17 -19 41 -45 52 -59 17 -21 19 -22 14 -5 -5 16 -4 17 4 5 6 -8 9 -17
7 -21 -7 -11 62 -139 70 -131 5 4 5 2 1 -5 -4 -7 5 -52 18 -100 37 -130 55
-242 76 -498 40 -470 80 -645 181 -795 104 -155 284 -256 529 -295 220 -35
481 0 635 84 74 41 124 77 172 124 40 39 57 67 31 51 -7 -4 -8 -3 -4 5 4 6 11
9 15 6 12 -7 63 69 100 147 36 77 75 220 68 249 -3 10 -2 17 3 14 11 -7 23
235 15 287 -4 24 -13 46 -19 50 -13 9 -238 11 -260 2 -12 -5 -16 -20 -16 -63
0 -31 -7 -98 -15 -149 -9 -51 -12 -99 -9 -105 4 -7 4 -9 -1 -5 -8 8 -56 -94
-58 -124 -1 -9 -5 -15 -8 -12 -4 2 -11 0 -14 -6 -19 -31 -87 -60 -138 -60 -59
0 -88 15 -119 64 -11 17 -17 23 -14 13 4 -11 2 -16 -5 -12 -6 4 -8 13 -6 19 3
7 -1 40 -9 73 -8 34 -25 159 -39 280 -14 120 -27 229 -29 243 -13 105 -19 140
-25 140 -3 0 -7 19 -8 43 -3 58 -47 207 -88 295 -19 39 -37 72 -40 72 -3 0 -3
-5 1 -12 4 -7 3 -8 -5 -4 -6 4 -9 12 -5 17 8 14 -69 111 -145 180 -107 99
-297 216 -329 204 -9 -3 -13 -3 -9 1 12 12 -144 73 -281 110 -11 3 -11 6 0 18
7 7 18 11 25 9 20 -8 229 36 375 78 76 21 140 39 143 39 4 0 3 5 -1 12 -5 7
-3 8 5 3 16 -9 92 25 84 38 -3 6 -1 7 5 3 6 -4 37 5 67 20 41 20 54 32 50 43
-3 8 -3 12 1 8 4 -4 14 -1 23 6 14 11 15 10 1 -7 -14 -18 -14 -19 5 -8 11 5
30 19 41 31 12 11 24 18 27 15 2 -2 9 2 15 9 9 10 8 14 -3 14 -8 0 -11 -5 -8
-10 4 -6 1 -7 -6 -3 -17 11 -5 21 23 21 22 0 76 44 135 108 21 23 22 29 10 44
-13 16 -12 17 3 5 15 -12 21 -7 52 40 80 120 124 317 112 493 -8 109 -36 236
-49 228 -6 -3 -7 -1 -3 5 9 14 -33 114 -45 106 -5 -3 -7 1 -4 8 7 17 -58 114
-73 111 -6 -2 -9 3 -6 11 6 16 -144 159 -159 149 -5 -3 -7 -1 -3 5 11 18 -163
115 -191 106 -13 -4 -15 -3 -5 4 17 12 -190 88 -209 77 -7 -5 -10 -4 -6 3 8
12 -154 53 -303 76 -311 50 -292 49 -1587 53 -964 3 -1223 2 -1229 -8z m2579
-36 c-7 -2 -19 -2 -25 0 -7 3 -2 5 12 5 14 0 19 -2 13 -5z m104 -9 c-3 -3 -12
-4 -19 -1 -8 3 -5 6 6 6 11 1 17 -2 13 -5z m-432 -204 c-3 -5 -12 -10 -18 -10
-7 0 -6 4 3 10 19 12 23 12 15 0z m20 -57 c39 -9 83 -16 98 -16 20 0 24 -2 15
-8 -13 -8 3 -13 39 -12 7 1 11 -3 8 -7 -9 -14 27 -21 44 -8 13 10 14 10 4 -1
-10 -11 0 -22 48 -54 70 -47 118 -99 161 -175 17 -29 34 -49 40 -45 7 4 8 1 4
-6 -9 -14 13 -73 24 -66 5 3 6 -3 4 -12 -3 -10 2 -38 11 -62 28 -81 40 -269
24 -400 -8 -64 -14 -124 -13 -133 0 -9 -2 -15 -6 -13 -10 6 -32 -64 -24 -76 4
-8 3 -9 -4 -5 -7 4 -14 -3 -18 -18 -3 -14 -25 -51 -49 -83 -46 -61 -51 -79
-13 -47 l23 19 -19 -23 c-11 -13 -26 -20 -35 -17 -8 3 -17 2 -20 -3 -3 -5 -25
-23 -49 -39 -23 -17 -39 -33 -35 -35 5 -3 2 -3 -6 -1 -7 2 -27 -5 -45 -16 -39
-24 -175 -65 -286 -86 -71 -14 -414 -32 -638 -35 l-43 0 3 618 c3 670 -1 611
53 747 l8 20 -17 -20 c-15 -19 -16 -19 -9 -1 4 13 3 17 -5 12 -7 -4 -12 -1
-12 10 0 12 3 14 13 6 22 -18 25 -17 59 14 59 56 124 80 262 94 110 12 316 3
401 -17z m290 -93 c-3 -5 -12 -10 -18 -10 -7 0 -6 4 3 10 19 12 23 12 15 0z
m1138 -105 c-3 -9 -8 -14 -10 -11 -3 3 -2 9 2 15 9 16 15 13 8 -4z m-1013 -15
c0 -5 -2 -10 -4 -10 -3 0 -8 5 -11 10 -3 6 -1 10 4 10 6 0 11 -4 11 -10z
m1044 -6 c3 -8 2 -12 -4 -9 -6 3 -10 10 -10 16 0 14 7 11 14 -7z m-2225 -119
c0 -5 -4 -3 -9 5 -5 8 -9 22 -9 30 0 16 17 -16 18 -35z m2212 -802 c12 -16 12
-17 -2 -6 -9 7 -20 9 -24 5 -5 -4 -5 -1 -1 6 9 16 11 15 27 -5z m-92 -70 c-3
-20 3 -23 24 -13 20 10 20 10 5 -3 -10 -8 -14 -18 -10 -23 4 -5 -3 0 -15 10
-13 10 -20 23 -17 27 6 11 14 12 13 2z m-999 -118 c-7 -9 -15 -13 -17 -11 -6
6 20 36 26 30 2 -2 -2 -10 -9 -19z m-1153 -147 c-3 -8 -6 -5 -6 6 -1 11 2 17
5 13 3 -3 4 -12 1 -19z m43 -39 c0 -6 -4 -7 -10 -4 -5 3 -10 11 -10 16 0 6 5
7 10 4 6 -3 10 -11 10 -16z m437 15 c-3 -3 -12 -4 -19 -1 -8 3 -5 6 6 6 11 1
17 -2 13 -5z m1020 -50 c-3 -3 -12 -4 -19 -1 -8 3 -5 6 6 6 11 1 17 -2 13 -5z
m-92 -192 c-3 -3 -11 0 -18 7 -9 10 -8 11 6 5 10 -3 15 -9 12 -12z m195 -82
c-8 -5 -19 -10 -25 -10 -5 0 -3 5 5 10 8 5 20 10 25 10 6 0 3 -5 -5 -10z m321
-333 c-10 -9 -11 -8 -5 6 3 10 9 15 12 12 3 -3 0 -11 -7 -18z m96 -119 c-3 -8
-6 -5 -6 6 -1 11 2 17 5 13 3 -3 4 -12 1 -19z m-866 -131 c-10 -9 -11 -8 -5 6
3 10 9 15 12 12 3 -3 0 -11 -7 -18z m932 -47 c-3 -12 -8 -19 -11 -16 -5 6 5
36 12 36 2 0 2 -9 -1 -20z m-2066 -702 c-3 -8 -6 -5 -6 6 -1 11 2 17 5 13 3
-3 4 -12 1 -19z m2503 -187 c0 -5 -7 -12 -16 -15 -14 -5 -15 -4 -4 9 14 17 20
19 20 6z m300 -76 c0 -5 -5 -3 -10 5 -5 8 -10 20 -10 25 0 6 5 3 10 -5 5 -8
10 -19 10 -25z m-447 8 c-7 -2 -21 -2 -30 0 -10 3 -4 5 12 5 17 0 24 -2 18 -5z
m-3478 -31 c-6 -7 -34 11 -29 19 3 5 11 3 19 -4 7 -6 12 -13 10 -15z m-262
-49 c-7 -2 -19 -2 -25 0 -7 3 -2 5 12 5 14 0 19 -2 13 -5z m2770 -140 c-3 -7
-6 -13 -8 -13 -2 0 -5 6 -8 13 -3 8 1 14 8 14 7 0 11 -6 8 -14z m-843 -137 c0
-2 -7 -7 -16 -10 -8 -3 -12 -2 -9 4 6 10 25 14 25 6z m1860 -6 c8 -5 11 -10 5
-10 -5 0 -17 5 -25 10 -8 5 -10 10 -5 10 6 0 17 -5 25 -10z m-327 -87 c-24 -2
-62 -2 -85 0 -24 2 -5 4 42 4 47 0 66 -2 43 -4z m164 1 c-3 -3 -12 -4 -19 -1
-8 3 -5 6 6 6 11 1 17 -2 13 -5z"/>
</g>
</svg>
